<svg width="24" height="24" viewBox="0 0 24 24" fill="none" xmlns="http://www.w3.org/2000/svg">
<path d="M11.9902 22.0371C10.61 22.0371 9.3112 21.7734 8.09375 21.2461C6.8763 20.7253 5.80208 19.9993 4.87109 19.0684C3.94661 18.1374 3.2207 17.0632 2.69336 15.8457C2.16602 14.6283 1.90234 13.3294 1.90234 11.9492C1.90234 10.569 2.16602 9.27018 2.69336 8.05273C3.2207 6.83529 3.94661 5.76432 4.87109 4.83984C5.80208 3.90885 6.87305 3.17969 8.08398 2.65234C9.30143 2.125 10.6003 1.86133 11.9805 1.86133C13.3672 1.86133 14.6693 2.125 15.8867 2.65234C17.1042 3.17969 18.1784 3.90885 19.1094 4.83984C20.0404 5.76432 20.7695 6.83529 21.2969 8.05273C21.8242 9.27018 22.0879 10.569 22.0879 11.9492C22.0879 13.3294 21.8242 14.6283 21.2969 15.8457C20.7695 17.0632 20.0404 18.1374 19.1094 19.0684C18.1784 19.9993 17.1042 20.7253 15.8867 21.2461C14.6693 21.7734 13.3704 22.0371 11.9902 22.0371ZM11.9902 20.0449C13.1165 20.0449 14.168 19.8366 15.1445 19.4199C16.1211 19.0033 16.9805 18.4238 17.7227 17.6816C18.4648 16.9395 19.0443 16.0801 19.4609 15.1035C19.8776 14.127 20.0859 13.0755 20.0859 11.9492C20.0859 10.8294 19.8776 9.78125 19.4609 8.80469C19.0443 7.82161 18.4648 6.95898 17.7227 6.2168C16.9805 5.47461 16.1178 4.89518 15.1348 4.47852C14.1582 4.06185 13.1068 3.85352 11.9805 3.85352C10.8607 3.85352 9.80924 4.06185 8.82617 4.47852C7.84961 4.89518 6.99349 5.47461 6.25781 6.2168C5.52214 6.95898 4.94596 7.82161 4.5293 8.80469C4.11263 9.78125 3.9043 10.8294 3.9043 11.9492C3.9043 13.0755 4.11263 14.127 4.5293 15.1035C4.94596 16.0801 5.52214 16.9395 6.25781 17.6816C7 18.4238 7.85938 19.0033 8.83594 19.4199C9.81901 19.8366 10.8704 20.0449 11.9902 20.0449ZM7.41016 13.4043C7.00651 13.4043 6.66146 13.2611 6.375 12.9746C6.08854 12.6882 5.94531 12.3431 5.94531 11.9395C5.94531 11.5358 6.08854 11.1908 6.375 10.9043C6.66146 10.6178 7.00651 10.4746 7.41016 10.4746C7.8138 10.4746 8.15885 10.6178 8.44531 10.9043C8.73828 11.1908 8.88477 11.5358 8.88477 11.9395C8.88477 12.3431 8.74154 12.6882 8.45508 12.9746C8.16862 13.2611 7.82031 13.4043 7.41016 13.4043ZM11.9902 13.4043C11.5931 13.4043 11.248 13.2611 10.9551 12.9746C10.6686 12.6882 10.5254 12.3431 10.5254 11.9395C10.5254 11.5358 10.6686 11.1908 10.9551 10.9043C11.248 10.6178 11.5931 10.4746 11.9902 10.4746C12.3939 10.4746 12.7389 10.6178 13.0254 10.9043C13.3118 11.1908 13.4551 11.5358 13.4551 11.9395C13.4551 12.3431 13.3118 12.6882 13.0254 12.9746C12.7389 13.2611 12.3939 13.4043 11.9902 13.4043ZM16.5703 13.4043C16.1667 13.4043 15.8216 13.2611 15.5352 12.9746C15.2487 12.6882 15.1055 12.3431 15.1055 11.9395C15.1055 11.5358 15.2487 11.1908 15.5352 10.9043C15.8216 10.6178 16.1667 10.4746 16.5703 10.4746C16.9805 10.4746 17.3288 10.6178 17.6152 10.9043C17.9017 11.1908 18.0449 11.5358 18.0449 11.9395C18.0449 12.3431 17.9017 12.6882 17.6152 12.9746C17.3288 13.2611 16.9805 13.4043 16.5703 13.4043Z" fill="#93A2B4"/>
</svg>
